PathFileType	4	(X/Y/Z)	C:\Users\86182\Documents\cortex\Trimmed_M4_H10.trc
DataRate	CameraRate	NumFrames	NumMarkers	Units	OrigDataRate	OrigDataStartFrame	OrigNumFrames
100.00	100.00	       84	2	mm	100.00	541	       901
Frame#	Time	gripper			box			
		X1	Y1	Z1	X2	Y2	Z2	

541	5.400	276.16794	151.11421	292.25522	278.47461	147.75674	155.54669	
542	5.410	276.16776	151.11353	292.25677	278.47809	147.75485	155.54709	
543	5.420	276.16742	151.11278	292.25848	278.48083	147.75354	155.54785	
544	5.430	276.16714	151.11221	292.25983	278.48227	147.75284	155.54892	
545	5.440	276.16702	151.11203	292.26028	278.48184	147.75285	155.55031	
546	5.450	276.16702	151.11237	292.25964	278.47903	147.75375	155.55209	
547	5.460	276.16693	151.11319	292.25806	278.47372	147.75560	155.55426	
548	5.470	276.16647	151.11440	292.25604	278.46625	147.75829	155.55673	
549	5.480	276.16522	151.11575	292.25430	278.45743	147.76144	155.55945	
550	5.490	276.16284	151.11710	292.25354	278.44830	147.76462	155.56223	
551	5.500	276.15921	151.11824	292.25412	278.43997	147.76741	155.56482	
552	5.510	276.15448	151.11911	292.25616	278.43326	147.76961	155.56693	
553	5.520	276.14908	151.11967	292.25931	278.42871	147.77107	155.56836	
554	5.530	276.14359	151.12004	292.26294	278.42651	147.77174	155.56908	
555	5.540	276.13885	151.12025	292.26627	278.42657	147.77159	155.56917	
556	5.550	276.13568	151.12036	292.26855	278.42883	147.77061	155.56865	
557	5.560	276.13492	151.12033	292.26923	278.43323	147.76898	155.56743	
558	5.570	276.13687	151.12015	292.26807	278.43954	147.76689	155.56540	
559	5.580	276.14133	151.11983	292.26520	278.44739	147.76459	155.56256	
560	5.590	276.14740	151.11937	292.26135	278.45605	147.76221	155.55923	
561	5.600	276.15408	151.11871	292.25739	278.46469	147.75996	155.55579	
562	5.610	276.16019	151.11794	292.25421	278.47211	147.75807	155.55280	
563	5.620	276.16489	151.11705	292.25232	278.47751	147.75665	155.55066	
564	5.630	276.16772	151.11609	292.25204	278.48065	147.75571	155.54956	
565	5.640	276.16855	151.11508	292.25342	278.48163	147.75513	155.54953	
566	5.650	276.16742	151.11414	292.25613	278.48056	147.75491	155.55051	
567	5.660	276.16458	151.11349	292.25961	278.47781	147.75500	155.55234	
568	5.670	276.16028	151.11336	292.26318	278.47421	147.75523	155.55457	
569	5.680	276.15500	151.11392	292.26617	278.47086	147.75548	155.55659	
570	5.690	276.14941	151.11517	292.26807	278.46863	147.75574	155.55786	
571	5.700	276.14456	151.11688	292.26849	278.46786	147.75607	155.55801	
572	5.710	276.14145	151.11865	292.26740	278.46857	147.75645	155.55708	
573	5.720	276.14044	151.12013	292.26526	278.47037	147.75682	155.55544	
574	5.730	276.14096	151.12123	292.26270	278.47229	147.75720	155.55365	
575	5.740	276.14206	151.12193	292.26038	278.47339	147.75778	155.55228	
576	5.750	276.14328	151.12224	292.25885	278.47308	147.75865	155.55151	
577	5.760	276.14474	151.12201	292.25812	278.47162	147.75970	155.55133	
578	5.770	276.14676	151.12123	292.25806	278.46994	147.76065	155.55145	
579	5.780	276.14944	151.12001	292.25836	278.46915	147.76111	155.55148	
580	5.790	276.15274	151.11856	292.25867	278.46991	147.76086	155.55121	
581	5.800	276.15625	151.11719	292.25858	278.47189	147.75999	155.55072	
582	5.810	276.15942	151.11621	292.25803	278.47412	147.75888	155.55034	
583	5.820	276.16168	151.11580	292.25705	278.47546	147.75803	155.55028	
584	5.830	276.16275	151.11592	292.25592	278.47498	147.75781	155.55067	
585	5.840	276.16260	151.11639	292.25513	278.47235	147.75845	155.55161	
586	5.850	276.16104	151.11696	292.25522	278.46780	147.75989	155.55298	
587	5.860	276.15793	151.11749	292.25665	278.46194	147.76184	155.55469	
588	5.870	276.15320	151.11800	292.25940	278.45563	147.76398	155.55652	
589	5.880	276.14740	151.11848	292.26300	278.44962	147.76590	155.55823	
590	5.890	276.14148	151.11896	292.26678	278.44479	147.76720	155.55956	
591	5.900	276.13641	151.11948	292.26978	278.44202	147.76755	155.56015	
592	5.910	276.13303	151.12004	292.27136	278.44196	147.76677	155.55975	
593	5.920	276.13190	151.12057	292.27118	278.44467	147.76494	155.55841	
594	5.930	276.13336	151.12091	292.26935	278.44949	147.76241	155.55643	
595	5.940	276.13727	151.12088	292.26630	278.45538	147.75966	155.55426	
596	5.950	276.14285	151.12038	292.26288	278.46115	147.75706	155.55243	
597	5.960	276.14890	151.11945	292.25995	278.46570	147.75505	155.55133	
598	5.970	276.15417	151.11819	292.25824	278.46848	147.75381	155.55116	
599	5.980	276.15799	151.11684	292.25790	278.46960	147.75330	155.55177	
600	5.990	276.16019	151.11565	292.25848	278.46957	147.75322	155.55281	
601	6.000	276.16104	151.11487	292.25940	278.46872	147.75351	155.55396	
602	6.010	276.16061	151.11472	292.26001	278.46738	147.75421	155.55499	
603	6.020	276.15912	151.11533	292.25995	278.46558	147.75548	155.55582	
604	6.030	276.15677	151.11662	292.25925	278.46329	147.75729	155.55647	
605	6.040	276.15390	151.11835	292.25812	278.46027	147.75951	155.55710	
606	6.050	276.15082	151.12016	292.25696	278.45636	147.76192	155.55786	
607	6.060	276.14771	151.12180	292.25620	278.45148	147.76437	155.55893	
608	6.070	276.14459	151.12308	292.25610	278.44589	147.76669	155.56030	
609	6.080	276.14127	151.12395	292.25702	278.44037	147.76860	155.56180	
610	6.090	276.13751	151.12437	292.25916	278.43573	147.76990	155.56320	
611	6.100	276.13361	151.12433	292.26236	278.43259	147.77051	155.56439	
612	6.110	276.12991	151.12386	292.26624	278.43137	147.77039	155.56516	
613	6.120	276.12692	151.12312	292.27005	278.43204	147.76958	155.56540	
614	6.130	276.12509	151.12233	292.27307	278.43439	147.76825	155.56500	
615	6.140	276.12479	151.12163	292.27472	278.43808	147.76665	155.56390	
616	6.150	276.12610	151.12111	292.27472	278.44269	147.76509	155.56216	
617	6.160	276.12891	151.12074	292.27322	278.44772	147.76370	155.56000	
618	6.170	276.13257	151.12048	292.27081	278.45279	147.76245	155.55768	
619	6.180	276.13638	151.12030	292.26813	278.45761	147.76122	155.55551	
620	6.190	276.13977	151.12015	292.26575	278.46179	147.76007	155.55380	
621	6.200	276.14243	151.11996	292.26404	278.46475	147.75920	155.55286	
622	6.210	276.14417	151.11969	292.26318	278.46616	147.75880	155.55280	
623	6.220	276.14465	151.11942	292.26331	278.46573	147.75905	155.55350	
624	6.230	276.14374	151.11925	292.26440	278.46350	147.75987	155.55487	
